<?xml version="1.0" encoding="utf-8"?>
<!-- Generator: Adobe Illustrator 16.0.0, SVG Export Plug-In . SVG Version: 6.00 Build 0)  -->
<!DOCTYPE svg PUBLIC "-//W3C//DTD SVG 1.1//EN" "http://www.w3.org/Graphics/SVG/1.1/DTD/svg11.dtd">
<svg version="1.1" id="Layer_2" xmlns="http://www.w3.org/2000/svg" xmlns:xlink="http://www.w3.org/1999/xlink" x="0px" y="0px"
	 width="500px" height="500px" viewBox="0 0 500 500" enable-background="new 0 0 500 500" xml:space="preserve">
<g id="Layer_3">
</g>
<g>
	<g>
		<path fill="#FFFFFF" d="M299.006,183.896c-46.083,0-83.574,37.488-83.574,83.568c0,46.078,37.491,83.566,83.574,83.566
			c46.079,0,83.567-37.488,83.567-83.566C382.573,221.385,345.085,183.896,299.006,183.896z"/>
		<path fill="#FEC10D" d="M299.006,162.781c-57.726,0-104.689,46.961-104.689,104.684c0,57.721,46.963,104.682,104.689,104.682
			c57.722,0,104.683-46.961,104.683-104.682C403.688,209.742,356.728,162.781,299.006,162.781z M299.006,351.031
			c-46.083,0-83.574-37.488-83.574-83.566c0-46.08,37.491-83.568,83.574-83.568c46.079,0,83.567,37.488,83.567,83.568
			C382.573,313.543,345.085,351.031,299.006,351.031z"/>
		<g>
			<path fill="#FEC10D" d="M488.839,278.02h-56.747c-5.831,0-10.558-4.727-10.558-10.558c0-5.83,4.727-10.558,10.558-10.558h56.747
				c5.831,0,10.558,4.728,10.558,10.558C499.396,273.293,494.67,278.02,488.839,278.02z"/>
		</g>
		<g>
			<path fill="#FEC10D" d="M166.701,278.02h-56.747c-5.831,0-10.558-4.727-10.558-10.558c0-5.83,4.727-10.558,10.558-10.558h56.747
				c5.831,0,10.557,4.728,10.557,10.558C177.258,273.293,172.532,278.02,166.701,278.02z"/>
		</g>
		<g>
			<path fill="#FEC10D" d="M299.396,145.323c-5.831,0-10.558-4.727-10.558-10.558V78.019c0-5.83,4.727-10.558,10.558-10.558
				s10.558,4.728,10.558,10.558v56.747C309.954,140.597,305.228,145.323,299.396,145.323z"/>
		</g>
		<g>
			<path fill="#FEC10D" d="M393.107,183.903c-2.702,0-5.403-1.031-7.465-3.093c-4.123-4.122-4.123-10.807,0-14.93l30.994-30.996
				c4.122-4.123,10.807-4.124,14.931-0.001c4.123,4.123,4.123,10.808,0,14.931l-30.994,30.996
				C398.512,182.872,395.81,183.903,393.107,183.903z"/>
		</g>
		<g>
			<path fill="#FEC10D" d="M424.511,403.537c-2.702,0-5.403-1.029-7.465-3.092l-31.805-31.807c-4.123-4.123-4.123-10.807,0-14.93
				c4.124-4.123,10.807-4.123,14.931,0l31.805,31.807c4.123,4.123,4.123,10.807,0,14.93
				C429.914,402.508,427.212,403.537,424.511,403.537z"/>
		</g>
		<g>
			<path fill="#FEC10D" d="M204.883,183.903c-2.702,0-5.404-1.031-7.465-3.093l-31.339-31.341c-4.123-4.123-4.123-10.808,0-14.93
				c4.123-4.123,10.808-4.123,14.931,0l31.338,31.341c4.123,4.123,4.123,10.808,0,14.93
				C210.287,182.872,207.585,183.903,204.883,183.903z"/>
		</g>
		<g>
			<path fill="#FEC10D" d="M173.54,403.533c-2.702,0-5.404-1.031-7.465-3.092c-4.123-4.123-4.123-10.809,0-14.932l31.807-31.805
				c4.123-4.121,10.808-4.121,14.93,0c4.123,4.123,4.123,10.809,0,14.932l-31.807,31.805
				C178.943,402.502,176.241,403.533,173.54,403.533z"/>
		</g>
	</g>
	<path fill="#FFFFFF" d="M312.684,310.047c-5.784-0.99-9.673-6.479-8.687-12.264c0.48-2.82,0.714-5.338,0.714-7.695
		c0-24.343-19.807-44.147-44.151-44.147c-5.059,0-10.15,0.92-15.135,2.734c-4.667,1.699-9.885-0.06-12.573-4.234
		c-16.582-25.754-44.704-41.13-75.227-41.13c-49.363,0-89.522,40.156-89.522,89.514c0,2.199,0.167,4.48,0.344,6.896
		c0.377,5.15-2.999,9.877-8.007,11.137c-22.713,5.705-38.576,26.018-38.576,49.391c0,28.139,22.877,51.031,50.996,51.031h231.155
		c28.141,0,51.034-22.893,51.034-51.031C355.049,335.357,337.231,314.244,312.684,310.047z"/>
	<path fill="#808083" d="M325.955,291.434c0.011-0.451,0.016-0.898,0.016-1.346c0-36.065-29.344-65.407-65.411-65.407
		c-4.828,0-9.655,0.554-14.422,1.65c-20.889-27.869-53.415-44.28-88.512-44.28c-61.085,0-110.782,49.693-110.782,110.773
		c0,0.025,0,0.051,0,0.076c-27.614,10.623-46.239,37.186-46.239,67.348c0,39.861,32.414,72.291,72.256,72.291h231.155
		c39.863,0,72.294-32.43,72.294-72.291C376.309,328.334,355.647,300.803,325.955,291.434z M304.015,411.279H72.859
		c-28.119,0-50.996-22.893-50.996-51.031c0-23.373,15.863-43.686,38.576-49.391c5.009-1.26,8.385-5.986,8.007-11.137
		c-0.177-2.416-0.344-4.697-0.344-6.896c0-49.357,40.16-89.514,89.522-89.514c30.522,0,58.645,15.376,75.227,41.13
		c2.688,4.175,7.906,5.934,12.573,4.234c4.984-1.814,10.076-2.734,15.135-2.734c24.345,0,44.151,19.805,44.151,44.147
		c0,2.357-0.233,4.875-0.714,7.695c-0.986,5.785,2.902,11.273,8.687,12.264c24.548,4.197,42.365,25.311,42.365,50.201
		C355.049,388.387,332.155,411.279,304.015,411.279z"/>
</g>
</svg>
